<svg xmlns="http://www.w3.org/2000/svg" fill="none" viewBox="0 0 256 256">
  <path fill="currentColor"
    d="m37 126.8 1.2-4.7L40 118l4-7v-4.7l-4-.6v-1.2l1.2-1.7 2.9-1.2 4-4.1 5.9-4.1 4-5.9V83l-2.2-1.2-3-1.8v-5.2l.6-2.4 1.2-.6v4.1l2.3 4.1 1.8 1.2 6.4.6 1.7 3.5v4.7l3 1.2-.6 1.7v7l.6 8.8 2.3 6.5h1.2l1.1-1.2 2.4-1.8 1.1-1.7v-3.5l1.2-3.5 1.8-3 9.3-8.2 4-1.7 6-.6 2.3 3.5.5 7.6 1.8 1.2.6-1.8 4.7.6.5 3.5-.5 8.8v4.1l1.7 4.1 1.8 3v3.5l-1.2-1.8-3-1.2-1.7-4-3.5.5-1.7 2.4 2.9 4 4.7 5.3 4.6 5.9 5.9 7.6 4.6 3 8.2 1.7 8.2 1.2 8.2 2.3 2.9-.6 3.5 1.2 4-1.2 2.4-3-1.2-.5-2.9.6-2.9-.6-3.5-.6-3.5 2.4-5.8-1.8-3.6-1.2-1.7-1.7-8.2-1.2-4-.6-1.8-1.7 1.2-3 1.7-1.7v-1.8l-3-1.2h-2.2l-1.2-3.5-1.2-2.3 1.8-2.4-.6-5.2-3.5-1.8-3-5.8-.5-4.7 1.1-4.1 2.4.6 2.3 4 1.8 2.4 2.3 3 1.2-1.8 4-2.4 1.8-2.3.6-7-2.3-3.6-3.5-2.3.5-2.3L130 91l5.3-.6h6.4l4-1.8 3-2.3 2.3-3.5 3-3 1.7-4.7-1.2-3.5-1.7-1.1-1.2-2.4.6-1.7 1.7-.6-.5-1.8-3.5-1.2-2.4-.5.6-1.2h4.7l3.5 1.2 1.2 1.7.5 3.5 1.8 4.1 3-1.1 2.2-1.2v-3.5l-2.3-3V60l3-3.5 5.8-1.2L173 53l1.2-7 1.7 1.7 1.2 3.5 2.3 1.8v-5.3l-2.9-4.7-3.5-3-2.9.7-3.5-1.8 2.3-2.3 4.1-1.8h5.9l.5-1.7h3.5v5.8l2.4 4.7 2.9 2.3 1.2-1.7v-5.9l-2.4-1.7-.5-2.4 1.7-1.7 1.2-2.4 4 1.2 6.5 3 5.2 4.6v1.8l-2.3 1.1 1.8 2.4 2.3-.6 1.7-4.1-2.3-4.1-1.6-1.3a110 110 0 0 0-76.5-16l-.1.3 7.5-.6-.5 1.8-7.6 1.2-4.1-1.8-4.1 2.3-5.8 2.4-4.7.6-.8-1A111 111 0 0 0 35.4 142l.5-9.4zM132.6 42l4.7-2.9 1.2 3-1.2 2.3h-4.7zM66 56.2l3.5-4.1 5.2-4.7h7v4.7l-2.3-3-3 2-1.7 1-2.9 3.5h-3l-1 5.3-3 2.3L63 61zM170.7 236.3l.7-2.3-4.1-1.2-3-1.8h-12.2l-2.3 1.2-4.7-.6-1.2-1.1h-1.7l-2.4 1.7h-5.2l-2.4-1.2h-3.5l-1.7 1.2-7-1.2-4.1 1.8-5.8-.6-5.3-1.7-4-1.2-.3.4a110 110 0 0 0 65.5 7.6l1.3-1z" />
  <path fill="currentColor"
    d="m164.4 136.8 1.7 1.1.6-1.7v-3l1.2-2.9v-1.2l-3 1.2-1.7 4.1zM185.7 58l1.2-2.3 4-1.2.7-.6 3.5-1.2h2.9v-2.3l.6-6.5-1.2-2.3-.6-1.2 2.3-.6 1.8-1.7-1.8-1.8h-4l-1.2 2.4-.6 2.3 2.3 1.8-1.1 4-4.7 3h-4l-.7 3-2.9 1.1v2.3l1.2 3zM148 125l1.2-1.1-1.2-1.8-1.2-1.2v-1.7h-3.5l-.5 3-1.8 1-3.5 3-1.2 1.8-2.9.6v1.7h-1.7l-2.4-1.2-1.7 5.3 2.3 3.5 3.5 2.4 5.9 1.7 4 .6.6-2.3.6-3 2.3-1.1.6-4.1.6-2.4zM44.8 175l-.1-.5v.4z" />
  <path fill="currentColor"
    d="M48.7 177.2v-4.7l-1.1-4.1-2.4-4.7v-7l-2.9-2.4v8.8l2.4 5.3v6.1q0 .3.2.5zM176.6 135.6l-2.3-1.2h-3.5l-1.2 1.2.6 2.3 1.8 1.2 3.5 1.8 1.7 1.7 4 2.4 3 .5 1.2 3-1.8.6 1.2 2.3 3.5.6.6 1.2 4 .5.7-1.7 3.5-.6 2.3 2.3 3.5 2.4 4 2.3 3-1.7-2.3-2.4 1.7-1.1-1.7-1.2-1.8-1.8h-1.1l-1.8 1.8-3-2.4.7-2.3h2.9l4-1.8 2.4-1.7 2.3 3 .6 3.4 1.2 3 3-2.4 1 2.4 2.4.5.6-2.3-3.5-3-3-2.9-3.4-2.9-2.4-3-3.5 1.3.6 2.9-2.3.6-2.4.6-2.9-.6-2.3-3-1.8-1.1-4-1.2-2.4-.6-1.7-1.2-5.3-.5zM215.7 197l.6 1.9-1.7 2.3-2.4 2.3-1.1 1.8-3 1.8-3.4 1.1-3 3 .6 1.7 4.1-1.2 5.8-4.6 2.4-1.8 2.3-2.3 1.8-1.2v-3.5l-1.8-3zM141.6 191.8l-.6 3.5-.6 3 6.4 1.1 4.1-2.3h5.3l1.2-1.8 1.7-1.7 8.2-1.2 4.7 2.4 2.3 3.5 3.5 4 7.6.7 5.8-2.4 4.7-4 3-6.5 2.2-3 .6-7.6-2.3-3.5-4-4.7v-7.6l-1.3-2.3-2.3-3.5-3-.6-1.7 4 1.2 6-4 1.7-4.8-3-2.9-2.9 3-2.3v-3.5l-4.1-.6h-5.9v2.3l-4 4.1-1.2.6-1.2-2.3-3 1.1-4 4.1-3.5 4.1-5.3 3-2.9.6h-4l-3.6 6.4 3.5 7.6zM163.8 119.8l-.6-5.3-2.3-3v-2.8l-1.8-1.8-3.5-2.4-.6-4 .6-3-1.8-3-2.3 1.8-.6 3-.6 2.9 1.8 4.1 1.7 1.8.6 2.9-.6 3 1.2 3.4-.6 3.5h2.4l2.9 3 3.5-.6zM155 132h-4.7l-2.3 3 1.2 4 1.1 8.3 3-1.2-1.2-2.3.6-1.8 1.1 2.4 1.2 1.7h3l-.6-2.3-2.4-1.8v-3l.6-1h2.3v-2.4l-2.3-1.2.6-.6h3l1-1.1v-1.8L158 132z" />
</svg>
