<svg xmlns="http://www.w3.org/2000/svg" fill="none" viewBox="0 0 174 40">
  <path fill="currentColor"
    d="m.46 19.78.2-.84.32-.74.74-1.26v-.85L.98 16v-.21l.21-.32.53-.2.73-.75 1.05-.73.74-1.06v-.84l-.42-.21-.53-.31v-.95l.1-.42.22-.11v.74l.42.74.31.2 1.16.11.31.63v.85l.53.2-.1.32v1.27l.1 1.58.41 1.15h.22l.2-.2.43-.32.2-.32v-.63l.22-.63.31-.53 1.68-1.47.73-.32 1.05-.1.42.63.11 1.37.31.2.11-.3.84.1.1.63-.1 1.58v.74l.31.73.32.53v.63l-.21-.31-.53-.22-.31-.73-.63.1-.32.42.53.74.84.95.84 1.05 1.05 1.37.84.53 1.47.31 1.47.22 1.47.42.52-.1.63.2.74-.2.42-.54-.21-.1-.53.1-.52-.1-.63-.1-.63.42-1.05-.32-.63-.21-.32-.32-1.47-.2-.73-.11-.32-.32.21-.53.32-.31v-.32l-.53-.2h-.42l-.2-.64-.22-.42.32-.42-.1-.95-.64-.32-.52-1.05-.1-.84.2-.74.42.1.42.74.32.42.42.53.2-.32.74-.42.32-.42.1-1.26-.42-.63-.63-.43.11-.42.84-.73.94-.1h1.16l.73-.33.53-.42.42-.63.52-.52.32-.85-.21-.63-.32-.21-.2-.42.1-.32.31-.1-.1-.32-.63-.21-.42-.1.1-.21h.84l.63.2.21.32.1.63.32.74.53-.21.42-.21v-.63l-.42-.53v-.53l.52-.63 1.05-.2.32-.43.2-1.26.32.31.21.63.42.32v-.95l-.52-.84-.63-.53-.53.1-.63-.3.42-.43.74-.32h1.05l.1-.31h.63v1.05l.42.84.53.43.2-.32V3.88l-.41-.32-.1-.42.3-.32.22-.42.73.21 1.16.53.94.84v.32l-.42.2.32.43.42-.1.31-.74-.42-.74-.28-.24A19.8 19.8 0 0 0 16.85.24l-.02.06L18.2.19l-.1.32-1.37.2-.74-.3-.73.41-1.05.42-.84.1-.15-.18A20 20 0 0 0 .16 22.52l.09-1.69zM17.62 4.56l.84-.53.21.53-.2.42h-.85zM5.65 7.1l.63-.74.95-.84h1.26v.84l-.42-.52-.55.34-.3.18-.52.63h-.52l-.21.95-.53.42-.31-.42zM24.48 39.48h.02l.1-.42-.73-.21-.53-.32h-2.2l-.42.21-.84-.1-.21-.22h-.32l-.42.32H18l-.42-.21h-.63l-.32.21-1.26-.21-.73.32-1.05-.11-.95-.32-.73-.2-.04.07a20 20 0 0 0 11.77 1.36l.24-.17z" />
  <path fill="currentColor"
    d="m23.34 21.57.32.21.1-.31v-.53l.21-.53v-.2l-.52.2-.32.74zM27.18 7.41 27.4 7l.74-.21.1-.1.63-.22h.53v-.42l.1-1.16-.2-.42-.11-.2.42-.11.31-.32-.31-.32h-.74l-.2.43-.11.42.42.31-.21.74-.84.53h-.74l-.1.52-.53.21v.43l.21.52zM20.4 19.47l.21-.22-.2-.31-.22-.21v-.32h-.63l-.1.53-.32.2-.63.54-.2.31-.53.1v.32h-.32l-.42-.2-.31.94.42.63.63.42 1.05.32.73.1.1-.42.11-.52.42-.21.1-.74.11-.42zM1.86 28.44l-.04-.08v.06z" />
  <path fill="currentColor"
    d="M2.56 28.84V28l-.21-.74-.42-.84v-1.27l-.53-.42v1.58l.42.95v1.1l.04.08zM25.55 21.36l-.42-.2h-.63l-.21.2.1.42.32.22.63.31.31.32.74.42.52.1.21.53-.31.1.2.43.64.1.1.21.74.1.1-.3.63-.11.42.42.63.42.74.42.52-.31-.42-.43.32-.2-.32-.22-.31-.31h-.21l-.32.31-.52-.42.1-.42h.53l.73-.32.42-.31.42.52.1.64.22.52.52-.42.21.42.42.1.1-.41-.62-.53-.53-.53-.63-.52-.42-.53-.63.21.1.53-.41.1-.42.1-.53-.1-.42-.52-.31-.21-.74-.21-.42-.11-.31-.21-.95-.1zM32.58 32.42l.1.32-.3.42-.43.42-.2.32-.53.31-.63.21-.53.53.1.32.74-.22 1.05-.84.42-.31.42-.43.32-.2v-.64l-.32-.52zM19.25 31.47l-.1.63-.11.53 1.15.21.74-.42h.94l.21-.32.32-.31 1.47-.21.84.42.42.63.63.74 1.36.1 1.05-.42.84-.73.53-1.16.42-.53.1-1.37-.42-.63-.73-.84v-1.37L28.7 26l-.42-.64-.53-.1-.31.74.2 1.05-.73.32-.84-.53-.52-.53.52-.42v-.63l-.73-.1h-1.05v.42l-.74.73-.2.1-.22-.41-.52.2-.74.74-.63.74-.94.53-.53.1h-.73l-.63 1.16.63 1.37zM23.24 18.52l-.1-.95-.43-.53v-.52l-.31-.32-.63-.42-.1-.74.1-.52-.32-.53-.42.32-.1.52-.1.53.3.74.32.31.1.53-.1.53.21.63-.1.63h.42l.52.53.63-.1zM21.66 20.73h-.84l-.42.53.21.73.21 1.48.53-.21-.21-.42.1-.32.21.42.21.32h.53l-.1-.42-.43-.32V22l.1-.2h.43v-.43l-.42-.2.1-.11h.53l.2-.21v-.32l-.41.21zM55.15 29.44q-2.52 0-4.55-.58a10 10 0 0 1-3.5-1.77 8 8 0 0 1-2.25-2.92 10 10 0 0 1-.78-4.01q0-2.3.82-4.09a8 8 0 0 1 2.35-3.01 11 11 0 0 1 3.64-1.87q2.1-.63 4.69-.63 3.04 0 5.25.85a8 8 0 0 1 3.49 2.4 6.4 6.4 0 0 1 1.44 3.68h-3.58a5 5 0 0 0-1.2-1.95 5.6 5.6 0 0 0-2.16-1.3q-1.35-.45-3.24-.45-2.44 0-4.16.78a6 6 0 0 0-2.61 2.22q-.9 1.43-.9 3.37 0 1.88.78 3.24.79 1.35 2.42 2.09 1.65.73 4.19.73 1.95 0 3.45-.52 1.5-.53 2.5-1.4a5 5 0 0 0 1.43-1.98l1.45-.54q-.36 3.63-2.72 5.64-2.37 2.02-6.25 2.02m8.02-.36q0-.87.12-2 .1-1.14.28-2.3l.3-2.15H55.6v-2.39h10.8v8.84zM74.03 10.92v15.04h12.02v3.12H70.31V10.92zM99.45 29.44q-3.6 0-6.16-1.13a8.7 8.7 0 0 1-3.92-3.25 9 9 0 0 1-1.36-5.05q0-2.97 1.36-5.08a8.7 8.7 0 0 1 3.92-3.24q2.56-1.13 6.16-1.13 3.64 0 6.19 1.13 2.55 1.14 3.9 3.24t1.35 5.08q0 2.95-1.35 5.05a8.7 8.7 0 0 1-3.9 3.25q-2.55 1.13-6.19 1.13m0-3.22q2.24 0 3.93-.68a5.8 5.8 0 0 0 2.66-2.05q.97-1.37.97-3.48t-.97-3.48a6 6 0 0 0-2.66-2.06 10 10 0 0 0-3.93-.69q-2.2 0-3.94.7a6 6 0 0 0-2.71 2.05 6 6 0 0 0-.98 3.48q0 2.1.98 3.48.97 1.38 2.71 2.05 1.74.68 3.94.68M114.53 29.08V10.92h10.43q3.64 0 5.53 1.22a4 4 0 0 1 1.89 3.64q0 1.54-.76 2.42a4.4 4.4 0 0 1-2.14 1.3q-1.37.43-3.26.54l.11-.2q1.37.03 2.6.2 1.2.17 2.13.62t1.46 1.25q.53.8.53 2.09a4.3 4.3 0 0 1-.9 2.8q-.9 1.1-2.49 1.66t-3.69.62zm3.72-3.09h7.33q1.76 0 2.71-.57.95-.58.95-1.84 0-.93-.56-1.35a3 3 0 0 0-1.48-.52 19 19 0 0 0-1.98-.1h-6.97zm0-7.38h6.57q1.77 0 2.72-.52t.95-1.78-.95-1.78a5 5 0 0 0-2.52-.52h-6.77zM139 25.12v-3.11h11.98v3.11zm-4.5 3.96 8.5-18.16h4.03l8.6 18.16h-4.06l-7.44-16.36h1.79l-7.39 16.36zM161.97 10.92v15.04H174v3.12h-15.75V10.92z" />
</svg>
